<svg width="107" height="44" viewBox="0 0 107 44" fill="none" xmlns="http://www.w3.org/2000/svg">
<ellipse cx="22.4292" cy="22" rx="22.4292" ry="22" fill="#E1B624"/>
<path d="M19.1971 29.5136C18.4269 29.1598 15.2549 27.3235 16.1127 22.0659C16.1194 22.0276 16.1308 21.9901 16.1466 21.9545C16.6488 20.8135 18.4037 18.496 17.6442 12.476C17.5495 11.7295 19.0416 15.0358 19.1632 15.2357C19.4133 15.6479 19.9048 15.379 20.1657 15.1048C21.6936 13.4914 21.9152 10.8114 21.4702 8.7522C21.4506 8.65865 21.4612 8.56138 21.5004 8.47409C21.5396 8.3868 21.6055 8.31389 21.6888 8.26564C21.772 8.21738 21.8685 8.19621 21.9646 8.20511C22.0607 8.21401 22.1515 8.25253 22.2243 8.31524C24.1615 9.96929 24.9174 13.3835 24.0793 15.6957C23.9524 16.0495 23.8059 16.4139 23.8773 16.7801C23.8909 16.8736 23.9312 16.9614 23.9935 17.033C24.1633 17.2099 24.4867 17.1551 24.6636 16.9764C24.8218 16.7826 24.9286 16.5527 24.9746 16.3077C25.2355 15.3914 25.6233 14.4662 26.3542 13.8488C26.4904 13.7195 26.6597 13.6296 26.8438 13.5887C26.9362 13.5706 27.032 13.5814 27.1179 13.6198C27.2038 13.6582 27.2754 13.7222 27.3227 13.8028C27.3687 13.9307 27.3755 14.0691 27.3424 14.2008C27.0011 16.428 26.5615 18.6765 26.7956 20.9408C26.8057 21.0545 26.8585 21.1603 26.9435 21.2373C27.0285 21.3144 27.1396 21.3571 27.2548 21.3571C27.3701 21.3571 27.4812 21.3144 27.5662 21.2373C27.6512 21.1603 27.704 21.0545 27.7141 20.9408L27.748 20.5552C27.757 20.4514 27.8015 20.3537 27.8743 20.2784C27.947 20.2031 28.0436 20.1547 28.148 20.1413C28.2524 20.1279 28.3583 20.1502 28.448 20.2046C28.5378 20.2589 28.6061 20.3421 28.6416 20.4402C29.2241 22.0766 29.8657 24.5231 29.3671 26.4195C29.3465 26.4937 29.3069 26.5614 29.2521 26.616C29.1973 26.6705 29.1292 26.7101 29.0544 26.7309L19.5241 29.5348C19.4162 29.5678 19.2998 29.5602 19.1971 29.5136Z" fill="#ED6953"/>
<path d="M20.6794 28.7108C20.229 28.4985 18.3723 27.4283 18.8745 24.3537C18.8783 24.3311 18.8849 24.3092 18.8941 24.2882C19.1872 23.6213 20.2148 22.2645 19.7698 18.7441C19.7144 18.3071 20.5882 20.2407 20.6633 20.3574C20.8098 20.5998 21.0958 20.4423 21.2477 20.2814C22.1412 19.3367 22.2716 17.7693 22.0125 16.5664C22.0018 16.512 22.0084 16.4557 22.0314 16.4052C22.0544 16.3548 22.0927 16.3126 22.141 16.2846C22.1893 16.2567 22.2452 16.2442 22.3009 16.2491C22.3567 16.2539 22.4095 16.2758 22.4521 16.3116C23.5869 17.2793 24.0283 19.2766 23.5386 20.6281C23.4433 20.8257 23.4026 21.0449 23.4207 21.2632C23.428 21.3179 23.4509 21.3695 23.4868 21.4118C23.544 21.4577 23.6169 21.4798 23.6902 21.4736C23.7636 21.4673 23.8316 21.4331 23.88 21.3782C23.9714 21.2646 24.0328 21.1302 24.0587 20.9872C24.2106 20.4565 24.4375 19.9099 24.8664 19.5472C24.9458 19.4719 25.0448 19.4198 25.1523 19.3968C25.206 19.3864 25.2617 19.3927 25.3116 19.4149C25.3615 19.4371 25.4033 19.474 25.4311 19.5207C25.4585 19.5956 25.4628 19.6768 25.4436 19.7542C25.2435 21.058 24.9861 22.3724 25.1237 23.6974C25.1313 23.7625 25.1628 23.8225 25.2123 23.8661C25.2617 23.9097 25.3256 23.9338 25.3918 23.9338C25.458 23.9338 25.5219 23.9097 25.5713 23.8661C25.6207 23.8225 25.6522 23.7625 25.6598 23.6974L25.6795 23.4709C25.6853 23.4107 25.7115 23.3541 25.754 23.3106C25.7965 23.267 25.8527 23.2391 25.9133 23.2312C25.9739 23.2234 26.0355 23.2362 26.0878 23.2676C26.1401 23.2989 26.1801 23.3469 26.2013 23.4037C26.5426 24.3608 26.9161 25.7919 26.6266 26.9011C26.6143 26.9431 26.5914 26.9813 26.5602 27.0122C26.5289 27.0431 26.4903 27.0658 26.4479 27.078L20.8706 28.725C20.8073 28.7439 20.7391 28.7389 20.6794 28.7108Z" fill="#E59B80"/>
<path d="M14.1016 31.0351C14.1016 31.0351 13.0883 34.0425 16.1281 35.0473L30.3153 29.7809C30.3153 29.7809 31.5823 28.026 29.3021 25.5175L25.7548 26.7718L27.5222 24.7586C27.5222 24.7586 27.2702 23.7556 26.0032 24.2562L23.7229 27.2636L14.1016 31.0351Z" fill="#1F171C"/>
<path d="M26.3816 35.5481C27.9903 35.5481 29.2945 34.3133 29.2945 32.7902C29.2945 31.267 27.9903 30.0322 26.3816 30.0322C24.7729 30.0322 23.4688 31.267 23.4688 32.7902C23.4688 34.3133 24.7729 35.5481 26.3816 35.5481Z" fill="#1F171C"/>
<path d="M76.1891 31.6168C75.8561 31.725 75.508 31.7813 75.1573 31.7839C74.2442 31.7839 73.5178 31.5412 72.978 31.0559C72.4383 30.5706 72.1704 29.9018 72.1745 29.0496C72.1629 28.5396 72.2991 28.0368 72.5671 27.5996C72.8162 27.1968 73.1738 26.869 73.6005 26.6524C74.0235 26.437 74.4934 26.3254 74.9701 26.3272C75.8467 26.3272 76.5568 26.5559 77.1006 27.0134L76.2804 28.0785C75.9528 27.8173 75.543 27.6755 75.1208 27.6772C74.9509 27.6747 74.7826 27.7084 74.6273 27.7759C74.472 27.8433 74.3335 27.943 74.2214 28.068C73.9731 28.3358 73.841 28.6879 73.8531 29.0496C73.8629 29.3128 73.9464 29.5683 74.0944 29.7882C74.2424 30.008 74.4492 30.1838 74.6922 30.2962C74.9352 30.4086 75.2051 30.4533 75.4723 30.4255C75.7395 30.3977 75.9938 30.2984 76.2073 30.1385L77.0519 31.1827C76.793 31.3766 76.5008 31.5236 76.1891 31.6168Z" fill="#E5E0CD"/>
<path d="M58.2994 26.8225C58.4544 26.9674 58.5776 27.1417 58.6616 27.3348C58.7456 27.5279 58.7886 27.7358 58.7879 27.9458V31.8242H57.1139V28.6305C57.1127 28.4285 57.0676 28.2292 56.9815 28.0457C56.9365 27.9762 56.8739 27.9195 56.7997 27.881C56.7255 27.8426 56.6423 27.8237 56.5584 27.8264C56.3662 27.8259 56.1776 27.8783 56.0143 27.9777C55.8509 28.0772 55.7194 28.2196 55.6347 28.3888C55.4065 28.7916 55.2919 29.2468 55.3029 29.7075V31.8257H53.6137V28.6305C53.6101 28.4266 53.558 28.2263 53.4615 28.0457C53.4116 27.9758 53.3447 27.9191 53.2668 27.8808C53.189 27.8426 53.1027 27.8239 53.0156 27.8264C52.6367 27.8264 52.3399 28.0144 52.1223 28.3888C51.8995 28.7848 51.7872 29.2314 51.7967 29.6836V31.8257H50.1074V26.6569H51.6399L51.7616 27.4729C51.9438 27.1354 52.2194 26.8551 52.5566 26.6641C52.8939 26.4731 53.2792 26.3791 53.6685 26.3929C54.038 26.3786 54.4042 26.467 54.7246 26.648C55.0037 26.8182 55.2082 27.084 55.2984 27.3938C55.5116 27.0974 55.7852 26.8475 56.1019 26.6599C56.3906 26.485 56.7228 26.3911 57.0622 26.3884C57.5167 26.3686 57.9609 26.5245 58.2994 26.8225Z" fill="#E5E0CD"/>
<path d="M66.0864 26.6444V31.8147H64.3956V31.1762C64.1746 31.4207 63.9033 31.6168 63.5996 31.7515C63.296 31.8862 62.9667 31.9565 62.6334 31.9579C61.8532 31.9579 61.2191 31.7286 60.7311 31.2702C60.2431 30.8117 59.9996 30.1335 60.0006 29.2355C59.9902 28.7169 60.1126 28.204 60.3567 27.7438C60.5761 27.3336 60.9034 26.9885 61.3048 26.7443C61.6849 26.5114 62.1243 26.3883 62.5725 26.3893C62.9543 26.372 63.3349 26.443 63.6834 26.5966C63.9639 26.7398 64.2107 26.939 64.4078 27.1814L64.5159 26.6503L66.0864 26.6444ZM64.3956 29.8277V28.5612C64.3017 28.311 64.1256 28.0985 63.895 27.9571C63.6438 27.8037 63.3523 27.7254 63.0564 27.7318C62.8784 27.7296 62.7018 27.7643 62.5384 27.8337C62.375 27.9031 62.2284 28.0057 62.1083 28.1346C61.9776 28.2703 61.8755 28.4301 61.8081 28.6047C61.7407 28.7794 61.7093 28.9653 61.7157 29.1519C61.712 29.4129 61.7787 29.6702 61.909 29.8978C62.0291 30.1149 62.2062 30.2967 62.4218 30.4244C62.6306 30.5498 62.871 30.6154 63.1158 30.6138C63.3852 30.6248 63.6516 30.5556 63.8801 30.4153C64.1085 30.275 64.2883 30.0701 64.3956 29.8277Z" fill="#E5E0CD"/>
<path d="M68.3676 24.3721H70.0614V26.6253H71.3439V27.918H70.0614V31.8315H68.3676V27.918H67.5449V26.6253H68.3676V24.3721Z" fill="#E5E0CD"/>
<path d="M78.5234 31.8159V22.459H80.1809V27.677L80.1688 27.4754C80.3543 27.1513 80.6165 26.8904 80.9552 26.6927C81.294 26.4872 81.7094 26.3844 82.2014 26.3844C82.7015 26.3844 83.1168 26.5306 83.4475 26.8232C83.7863 27.1078 83.9597 27.4794 83.9678 27.9379V31.8159H82.274V28.5546C82.2659 28.3253 82.2014 28.1435 82.0804 28.0091C81.9675 27.8668 81.7739 27.7956 81.4997 27.7956C81.2416 27.7956 81.0157 27.8786 80.8222 28.0447C80.6286 28.2107 80.4794 28.436 80.3745 28.7206C80.2697 29.0053 80.2172 29.3334 80.2172 29.705V31.8159H78.5234Z" fill="#E5E0CD"/>
<path d="M105.757 16.0162C106.151 16.252 106.467 16.5931 106.67 16.9993C106.9 17.4682 107.013 17.9842 107 18.5044C107.014 19.0191 106.886 19.5279 106.632 19.9783C106.393 20.3861 106.036 20.7152 105.606 20.924C105.139 21.1481 104.623 21.2601 104.103 21.2507C103.795 21.2505 103.491 21.1959 103.203 21.0896C102.928 20.9947 102.678 20.839 102.473 20.6346V23.5927H100.799V15.8193H102.248L102.392 16.4354C102.963 15.954 103.688 15.6833 104.441 15.6702C104.904 15.6638 105.359 15.7836 105.757 16.0162ZM104.844 19.5427C104.989 19.4147 105.103 19.2575 105.18 19.0819C105.257 18.9062 105.295 18.7164 105.29 18.5253C105.297 18.3337 105.265 18.1426 105.196 17.9633C105.126 17.784 105.021 17.6201 104.886 17.4811C104.759 17.3486 104.604 17.2438 104.432 17.1735C104.26 17.1031 104.076 17.0686 103.89 17.0724C103.597 17.0636 103.308 17.131 103.051 17.2678C102.812 17.4077 102.617 17.6108 102.49 17.854V19.1205C102.576 19.366 102.744 19.5761 102.966 19.7172C103.204 19.8701 103.485 19.9487 103.769 19.9425C104.165 19.9513 104.548 19.8102 104.839 19.5486L104.844 19.5427Z" fill="#E5E0CD"/>
<path d="M55.1161 15.9981C55.505 16.221 55.8216 16.5474 56.0292 16.9394C56.2653 17.3933 56.382 17.8979 56.3685 18.4072C56.3792 18.928 56.2501 19.4425 55.9942 19.899C55.7595 20.3143 55.4125 20.6581 54.9913 20.8925C54.5743 21.1258 54.1018 21.2467 53.6216 21.243C53.2957 21.254 52.9707 21.201 52.666 21.087C52.3612 20.973 52.0828 20.8003 51.8472 20.5792V21.0998H50.1641V11.7676H51.8381V16.2875C52.0938 16.089 52.3841 15.9374 52.6949 15.84C53.0687 15.7211 53.46 15.6631 53.853 15.6684C54.2965 15.6654 54.7328 15.7793 55.1161 15.9981ZM53.9458 19.6603C54.1611 19.5321 54.338 19.3505 54.4587 19.1337C54.5893 18.9062 54.6559 18.6489 54.6519 18.3879C54.6579 18.1995 54.6246 18.012 54.5539 17.8368C54.4833 17.6616 54.3768 17.5024 54.241 17.369C54.1127 17.2396 53.9588 17.1373 53.7887 17.0683C53.6186 16.9993 53.4359 16.965 53.2518 16.9677C52.9465 16.9611 52.6455 17.0386 52.3829 17.1915C52.1443 17.3285 51.9579 17.5379 51.8518 17.7882V19.0547C52.1409 19.5758 52.6076 19.8358 53.2518 19.8348C53.4952 19.8409 53.7355 19.7805 53.9458 19.6603Z" fill="#E5E0CD"/>
<path d="M63.3696 15.9344V21.1047H61.6788V20.4662C61.4578 20.7108 61.1865 20.9068 60.8828 21.0415C60.5792 21.1762 60.2499 21.2465 59.9166 21.2479C59.1364 21.2479 58.5023 21.0187 58.0143 20.5602C57.5263 20.1018 57.2828 19.4235 57.2838 18.5255C57.2734 18.0069 57.3958 17.494 57.6399 17.0338C57.8593 16.6237 58.1866 16.2786 58.588 16.0343C58.9681 15.8014 59.4075 15.6784 59.8557 15.6793C60.2375 15.662 60.6181 15.733 60.9666 15.8867C61.2471 16.0298 61.4939 16.229 61.691 16.4714L61.7991 15.9404L63.3696 15.9344ZM61.6788 19.1177V17.8513C61.5849 17.601 61.4088 17.3885 61.1782 17.2471C60.927 17.0937 60.6355 17.0154 60.3396 17.0219C60.1616 17.0196 59.985 17.0543 59.8216 17.1237C59.6582 17.1931 59.5116 17.2957 59.3915 17.4246C59.2608 17.5604 59.1587 17.7202 59.0913 17.8948C59.0239 18.0694 58.9925 18.2554 58.9989 18.442C58.9952 18.7029 59.0619 18.9603 59.1922 19.1878C59.3123 19.4049 59.4894 19.5867 59.705 19.7144C59.9138 19.8398 60.1542 19.9054 60.399 19.9039C60.6684 19.9149 60.9348 19.8457 61.1633 19.7053C61.3917 19.565 61.5715 19.3601 61.6788 19.1177Z" fill="#E5E0CD"/>
<path d="M65.6022 20.9867C65.2441 20.85 64.9221 20.6359 64.6602 20.3602L65.3617 19.4488C65.8274 19.8739 66.2672 20.0872 66.6766 20.0872C66.8572 20.0949 67.0371 20.0607 67.2016 19.9873C67.2611 19.9623 67.3118 19.9207 67.3472 19.8676C67.3827 19.8145 67.4014 19.7524 67.401 19.6889C67.4021 19.6137 67.3812 19.5397 67.3407 19.4757C67.3003 19.4117 67.242 19.3604 67.1727 19.3279C67.0091 19.2417 66.8367 19.1727 66.6583 19.1221C66.4696 19.0664 66.3433 19.0306 66.2794 19.0147C65.8798 18.9102 65.5217 18.6897 65.2521 18.3822C65.0293 18.1083 64.91 17.7673 64.9143 17.417C64.9166 17.1327 64.9937 16.8537 65.138 16.607C65.3012 16.3293 65.542 16.1032 65.832 15.9552C66.1946 15.7753 66.5976 15.688 67.0038 15.7016C67.3779 15.6943 67.7513 15.738 68.1132 15.8313C68.4299 15.9237 68.7283 16.0679 68.9958 16.258L68.3551 17.2276C68.191 17.1003 68.0104 16.995 67.8179 16.9143C67.6493 16.8378 67.4665 16.7956 67.2807 16.7905C67.1155 16.783 66.9517 16.824 66.8105 16.9084C66.7578 16.9361 66.7133 16.9768 66.6816 17.0265C66.6498 17.0762 66.6318 17.1332 66.6294 17.1918C66.622 17.2675 66.6381 17.3435 66.6756 17.4101C66.7131 17.4766 66.7702 17.5305 66.8394 17.5647C67.0605 17.6755 67.2939 17.7611 67.5349 17.8198L67.6871 17.8675L67.8499 17.9138C68.6798 18.1823 69.0942 18.6716 69.0932 19.3816C69.0957 19.7033 69.0072 20.0193 68.8376 20.2946C68.654 20.5838 68.39 20.8156 68.0767 20.9629C67.686 21.1434 67.2574 21.2308 66.8257 21.218C66.4064 21.2192 65.9909 21.1406 65.6022 20.9867Z" fill="#E5E0CD"/>
<path d="M74.1863 19.4944L74.935 20.7251C74.6455 20.8833 74.3393 21.0104 74.0219 21.104C73.7266 21.1972 73.419 21.2474 73.1088 21.2532C72.5404 21.2662 71.9775 21.1417 71.4698 20.8907C71.0313 20.6745 70.6707 20.332 70.4365 19.9091C70.1973 19.4623 70.0769 18.9637 70.0865 18.4592C70.0836 17.9656 70.224 17.4813 70.4913 17.0629C70.7615 16.6357 71.1428 16.2867 71.5961 16.0515C72.0716 15.8016 72.6044 15.6753 73.1438 15.6846C73.8274 15.6586 74.4949 15.8915 75.008 16.335C75.495 16.7696 75.8111 17.3891 75.9561 18.1937L72.0785 19.399C72.2092 19.5444 72.3716 19.6592 72.5536 19.7348C72.7356 19.8105 72.9326 19.8451 73.1301 19.836C73.5087 19.8259 73.8759 19.7071 74.1863 19.4944ZM72.0968 17.3538C71.8597 17.6403 71.7394 18.0028 71.7589 18.3712V18.4771L74.0767 17.7074C73.9073 17.2191 73.5491 16.9749 73.0023 16.9749C72.8321 16.9677 72.6623 16.998 72.5056 17.0636C72.3489 17.1292 72.2092 17.2283 72.0968 17.3538Z" fill="#E5E0CD"/>
<path d="M80.7828 21.0807C80.4499 21.1888 80.1018 21.2452 79.751 21.2478C78.8379 21.2478 78.1115 21.0051 77.5718 20.5198C77.032 20.0345 76.7642 19.3657 76.7683 18.5134C76.7567 18.0035 76.8928 17.5007 77.1609 17.0635C77.41 16.6606 77.7675 16.3329 78.1942 16.1162C78.6172 15.9009 79.0872 15.7893 79.5638 15.791C80.4404 15.791 81.1506 16.0198 81.6944 16.4772L80.8741 17.5423C80.5465 17.2812 80.1368 17.1394 79.7145 17.141C79.5447 17.1386 79.3763 17.1723 79.2211 17.2397C79.0658 17.3072 78.9273 17.4069 78.8151 17.5319C78.5668 17.7997 78.4347 18.1518 78.4468 18.5134C78.4567 18.7767 78.5401 19.0322 78.6881 19.252C78.8361 19.4719 79.0429 19.6476 79.2859 19.76C79.529 19.8725 79.7988 19.9172 80.0661 19.8894C80.3333 19.8616 80.5876 19.7623 80.8011 19.6024L81.6457 20.6466C81.3867 20.8405 81.0945 20.9875 80.7828 21.0807Z" fill="#E5E0CD"/>
<path d="M88.6372 15.9344V21.1047H86.9464V20.4662C86.7254 20.7108 86.4541 20.9068 86.1504 21.0415C85.8467 21.1762 85.5175 21.2465 85.1841 21.2479C84.4029 21.2479 83.7689 21.0187 83.2819 20.5602C82.7949 20.1018 82.5514 19.4235 82.5514 18.5255C82.541 18.0069 82.6634 17.494 82.9075 17.0338C83.1269 16.6237 83.4542 16.2786 83.8556 16.0343C84.2357 15.8014 84.6751 15.6784 85.1233 15.6793C85.5051 15.662 85.8856 15.733 86.2342 15.8867C86.5147 16.0298 86.7615 16.229 86.9586 16.4714L87.0666 15.9404L88.6372 15.9344ZM86.9464 19.1177V17.8513C86.8525 17.601 86.6764 17.3885 86.4457 17.2471C86.1941 17.0934 85.9021 17.0151 85.6057 17.0219C85.4278 17.0196 85.2515 17.0543 85.0884 17.1238C84.9252 17.1932 84.7789 17.2957 84.6591 17.4246C84.5283 17.5604 84.4263 17.7202 84.3589 17.8948C84.2915 18.0694 84.2601 18.2554 84.2665 18.442C84.2628 18.7029 84.3294 18.9603 84.4598 19.1878C84.5799 19.4049 84.7569 19.5867 84.9726 19.7144C85.1814 19.8398 85.4217 19.9054 85.6666 19.9039C85.9359 19.9147 86.2023 19.8454 86.4307 19.7051C86.6591 19.5648 86.8389 19.36 86.9464 19.1177Z" fill="#E5E0CD"/>
<path d="M98.567 16.0998C98.722 16.2447 98.8452 16.419 98.9292 16.6122C99.0132 16.8053 99.0562 17.0132 99.0555 17.2231V21.1016H97.3815V17.9078C97.3803 17.7059 97.3351 17.5065 97.2491 17.323C97.2041 17.2536 97.1414 17.1968 97.0672 17.1584C96.993 17.1199 96.9099 17.1011 96.826 17.1038C96.6337 17.1032 96.4452 17.1556 96.2819 17.2551C96.1185 17.3545 95.987 17.497 95.9023 17.6661C95.674 18.069 95.5595 18.5242 95.5705 18.9848V21.1031H93.8813V17.9078C93.8777 17.7039 93.8256 17.5037 93.7291 17.323C93.6792 17.2531 93.6123 17.1965 93.5344 17.1582C93.4566 17.1199 93.3703 17.1012 93.2832 17.1038C92.9043 17.1038 92.6075 17.2917 92.3899 17.6661C92.1671 18.0622 92.0547 18.5088 92.0642 18.961V21.1031H90.375V15.9342H91.9075L92.0292 16.7502C92.2114 16.4128 92.487 16.1325 92.8242 15.9414C93.1615 15.7504 93.5468 15.6564 93.9361 15.6702C94.3056 15.656 94.6717 15.7444 94.9922 15.9253C95.2713 16.0955 95.4758 16.3614 95.5659 16.6712C95.7792 16.3748 96.0528 16.1249 96.3695 15.9372C96.6582 15.7623 96.9903 15.6684 97.3297 15.6657C97.7842 15.646 98.2285 15.8018 98.567 16.0998Z" fill="#E5E0CD"/>
</svg>
