<svg width="200" height="142" viewBox="0 0 200 142" fill="none" xmlns="http://www.w3.org/2000/svg">
<g clip-path="url(#clip0_857_17940)">
<path d="M127.612 13.8235H121.491V8.12667H127.612V13.8235ZM24.469 19.2075C24.469 8.28608 30.8979 0 42.0513 0C44.8776 0 47.3896 0.592927 49.5693 1.64172C54.86 4.18773 58.1929 9.42575 59.2924 15.4355H67.8519V28.3964C67.8519 30.6341 68.5119 32.3264 70.9882 32.3264C73.8935 32.3264 75.2493 30.2437 75.2493 27.5339V20.742H71.7272V15.4384H81.7155C86.7901 15.4384 87.7987 13.5941 87.7987 9.70433H92.9478V15.4355H99.4557V17.9874C100.576 16.4589 102.9 15.3178 106.542 15.3178C109.565 15.3178 111.305 16.4947 112.507 18.2228V15.5174H127.613V32.2072H131.06C130.477 30.5983 130.131 28.5171 130.131 26.2795C130.131 20.0746 133.536 15.5174 139.89 15.5174C142.599 15.5174 144.498 16.9684 145.585 18.6191V13.3155H141.748V8.13114H152.091V32.1685H155.032C154.298 30.5998 153.991 28.5961 153.991 26.4344C153.991 19.4846 158.986 15.1658 165.143 15.1658C171.764 15.1658 175.909 19.6038 175.909 26.6713V27.5756H160.995C161.114 31.7365 162.777 33.189 165.141 33.189C167.97 33.189 169.208 31.8944 169.714 29.1845H176.105C175.33 35.4669 170.22 37.7447 164.719 37.7447C160.731 37.7447 157.75 36.6482 155.732 33.9384V37.2754H145.588V33.8966C144.075 36.2535 142.14 37.5495 139.12 37.5495C135.75 37.5495 133.156 36.2535 131.682 34.0143V37.2769H117.545V34.567C116.229 36.5276 113.748 37.5898 110.728 37.5898C107.437 37.5898 105.229 36.8449 102.982 34.4121V37.2769H98.6437V34.6445C97.5621 36.2177 96.0498 37.5898 93.2607 37.5898C88.42 37.5898 86.3282 34.9186 86.3282 29.5778V20.6243H81.7557V32.2058H84.6208V37.2739H75.288V33.3067C74.0127 35.6248 71.3398 37.5853 68.202 37.5853C64.2896 37.5853 61.3098 35.8974 61.3098 31.5398V20.6213H59.6053C59.0436 27.8437 55.3755 33.7268 49.5723 36.4248C47.3598 37.4527 44.8389 38.0188 42.0587 38.0188C31.4864 38.0188 24.4749 29.8102 24.4719 19.212L24.469 19.2075ZM161.111 24.0761H169.015C168.82 21.2858 167.853 19.6753 165.178 19.6753C163.204 19.6753 161.577 20.894 161.111 24.0761ZM137.177 26.0337C137.177 28.9432 137.953 32.5171 141.475 32.5171C144.302 32.5171 145.582 29.8892 145.582 27.3715V25.2083C145.582 22.6608 144.223 20.1059 141.593 20.1059C138.26 20.1059 137.179 23.1256 137.179 26.0337H137.177ZM104.763 21.0117C104.763 24.9014 118.354 21.0519 118.354 30.5164C118.354 31.0661 118.315 31.6933 118.234 32.164H121.687V20.6198H117.853V22.1901H112.275C111.303 20.1476 110.07 19.4802 107.935 19.4802C106.425 19.4802 104.761 19.7156 104.761 21.0117H104.763ZM92.9463 30.4746C92.9463 31.7663 93.1043 33.3797 94.6895 33.3797C96.2748 33.3797 96.312 32.0434 96.2003 29.6478H103.519C104.952 32.0046 106.348 33.4184 109.405 33.4184C110.606 33.4184 112.235 33.1071 112.235 31.6918C112.235 27.6098 98.7957 31.6113 98.7957 21.6791C98.7957 21.3662 98.7957 20.9342 98.8359 20.6184H92.9463V30.4746ZM34.5407 16.3338C34.5407 23.8199 37.7365 32.3205 42.9825 32.3205C42.9944 32.3205 43.0063 32.3205 43.0197 32.3205C48.0183 32.3205 49.5678 25.9189 49.5678 21.0876C49.5678 15.9807 47.4358 5.45701 41.0084 5.45701C36.1677 5.45701 34.5407 12.0165 34.5407 16.3338ZM199.997 101.516C199.805 90.1174 192.698 81.7658 184.845 73.8954C179.577 68.6156 176.145 65.8536 172.071 60.2327C169.989 57.3619 167.778 50.0502 171.752 50.0502C172.559 50.0502 173.623 50.3526 174.994 51.0558C179.48 53.3545 181.365 55.5563 184.846 59.7634C185.802 60.918 186.715 62.0502 187.58 63.108C189.739 65.7449 192.49 68.5858 194.374 71.4372C194.826 72.1196 195.522 72.425 196.211 72.425C197.335 72.425 198.442 71.613 198.443 70.2931C198.452 62.3899 198.461 54.4852 198.469 46.582C198.469 45.4811 197.6 44.5663 196.463 44.4606C192.85 44.1224 188.406 43.5414 184.845 43.1138C182.299 42.8084 179.769 42.6594 177.272 42.5805C156.875 41.9369 155.485 62.5121 157.806 71.911C159.649 79.3747 163.451 82.6313 169.325 87.3062C187.945 102.128 186.713 111.786 182.455 111.353C172.635 110.351 158.825 85.0001 155.086 84.3908C146.867 83.0529 141.458 120.238 182.869 120.238C194.632 120.238 200.054 111.467 199.999 101.781C199.999 101.693 199.997 101.604 199.996 101.514L199.997 101.516ZM153.395 44.2907C153.366 43.4445 153.089 42.6535 152.256 42.6505C146.267 42.6341 139.065 42.6207 133.001 42.6088C131.98 42.6073 131.329 43.7023 131.79 44.6289C140.808 62.7549 137.654 86.5241 131.197 71.2585C129.252 66.6611 124.27 49.1146 123.673 44.109C123.57 43.2434 122.846 42.5939 121.989 42.5924C115.109 42.5835 108.806 42.579 101.993 42.579C100.99 42.579 100.862 43.5503 100.99 44.5634C105.545 80.4027 133.515 81.9178 116.163 110.07C116.049 110.258 115.81 110.636 115.81 110.636C115.56 111.038 115.839 111.56 116.312 111.578C122.543 111.81 128.615 112.187 134.48 112.698C137.818 112.915 141.088 113.164 144.282 113.44C144.838 113.487 145.357 113.124 145.471 112.579C145.525 112.321 145.483 112.051 145.309 111.805C128.254 87.9006 154.269 69.94 153.39 44.2907H153.395ZM54.1046 76.8093C54.1046 96.5919 46.8622 107.275 37.8378 113.182C35.2991 114.843 32.4265 115.923 29.4288 116.391C19.5433 117.933 10.9436 119.795 4.00962 121.899C1.90289 122.387 -0.136782 120.698 0.00773865 118.478C2.54504 79.5535 1.08643 56.4651 0.688624 46.0978C0.617109 44.2416 2.09658 42.6952 3.95151 42.6863C12.216 42.6445 23.1876 42.6103 30.5507 42.5805C34.9445 42.5641 38.6543 43.5608 41.7041 45.484C44.7525 47.4118 47.2227 49.9504 49.1164 53.1027C51.0086 56.258 52.3584 59.8618 53.1555 63.9422C53.9511 68.0242 54.1031 72.2968 54.1031 76.8093H54.1046ZM32.2865 89.9714C32.0302 86.2008 31.5415 81.6615 30.8353 76.2998C30.1574 71.3091 29.4288 67.0275 28.6422 63.473C27.8555 59.9184 27.039 57.0387 26.1868 54.8591C25.3346 52.6796 24.4868 51.1332 23.6391 50.2409C22.7898 49.35 21.9689 49.0669 21.1703 49.4096C20.3702 49.7537 19.7996 50.3273 19.4584 51.1288C19.1172 51.9303 18.9578 53.4766 18.9891 55.7545C19.0189 58.0308 19.2573 61.2726 19.7162 65.4246C20.1736 69.578 20.7859 75.1259 21.5726 81.9788C22.328 88.5129 23.0088 93.5886 23.6003 97.2892C24.1903 100.988 24.7714 103.674 25.3331 105.377C25.8948 107.081 26.4878 108.042 27.1091 108.278C27.7303 108.513 28.4336 108.418 29.2173 107.998C30.1067 107.493 30.8174 106.554 31.3449 105.179C31.8723 103.805 32.2254 101.87 32.4042 99.3689C32.583 96.8676 32.5412 93.7435 32.285 89.9729L32.2865 89.9714ZM110.515 109.683C110.958 110.337 110.505 111.218 109.715 111.23C107.524 111.262 103.931 111.308 101.924 111.308C97.565 111.308 89.9621 111.516 86.9271 111.604C86.1837 111.627 85.5445 111.086 85.4417 110.35C85.0171 107.291 83.9548 98.3573 83.5019 95.1752C82.8344 90.4943 82.0328 85.9401 81.1001 81.5096C81.0927 81.4723 81.0584 81.4455 81.0212 81.447C78.1859 81.5617 75.3506 81.6988 72.5153 81.8611C72.4736 81.8641 72.4408 81.8984 72.4423 81.9401C72.4721 85.3263 72.6047 88.51 72.8446 91.488C73.0845 94.4899 73.375 97.2534 73.7177 99.7815C74.0589 102.31 74.4388 105.815 74.8574 107.743C74.9617 108.227 75.2091 109.63 75.3998 110.733C75.4027 110.752 75.4057 110.773 75.4087 110.792C75.4996 111.494 74.9513 112.117 74.2436 112.148C66.8105 112.486 59.6515 112.972 52.8456 113.587C52.3063 113.636 51.9025 113.091 52.1186 112.595C52.12 112.592 52.1215 112.588 52.123 112.585C62.8786 88.5308 63.1334 54.4316 62.3601 44.4412C62.2827 43.449 63.0529 42.6028 64.0318 42.6013C72.5958 42.5879 85.5177 42.5805 93.882 42.5775C94.8609 42.5775 95.6237 43.4326 95.5373 44.4248C93.7896 64.5203 99.0326 92.7111 110.514 109.68L110.515 109.683ZM80.1362 77.0045C79.8367 75.0782 79.4642 72.7438 79.0217 69.9952C78.5733 67.2063 78.0831 64.5113 77.5542 61.9117C77.0253 59.312 76.477 57.0997 75.9108 55.2748C75.3431 53.4528 74.7859 52.5411 74.2362 52.55C74.1989 52.55 74.1617 52.5574 74.1244 52.5694C74.0767 52.556 74.0276 52.55 73.9799 52.55C73.6491 52.556 73.3616 53.0029 73.1202 53.8938C72.8774 54.7846 72.6971 55.9407 72.5794 57.356C72.4617 58.7728 72.3797 60.3683 72.335 62.1456C72.2903 63.9229 72.2591 65.7329 72.2412 67.5728C72.2233 69.4141 72.2203 71.1899 72.2352 72.8972C72.2486 74.5702 72.2397 76.054 72.2099 77.3501C72.2099 77.3948 72.2456 77.4306 72.2918 77.4276C72.3633 77.4246 72.4334 77.4201 72.5049 77.4172C72.5168 77.4246 72.5317 77.4291 72.5481 77.4276C75.0526 77.2995 77.5571 77.1877 80.0632 77.0939C80.1093 77.0924 80.1436 77.0522 80.1377 77.006L80.1362 77.0045Z" fill="#FFFDE6"/>
<path d="M153.193 129.976V128.141H146.286V136.027C146.286 136.397 146.586 136.698 146.957 136.698H153.193V134.862H149.567V133.337H153.193V131.502H149.567V129.976H153.193Z" fill="#FFFDE6"/>
<path d="M146.769 138.609C146.748 138.575 146.712 138.575 146.691 138.609L146.368 139.137C146.347 139.171 146.347 139.229 146.368 139.263L146.691 139.791C146.712 139.825 146.748 139.825 146.769 139.791L147.092 139.263C147.113 139.229 147.113 139.171 147.092 139.137L146.769 138.609Z" fill="#FFFDE6"/>
<path d="M136.044 138.678V139.722C136.044 140.291 136.508 140.756 137.078 140.756H140.48V139.819H137.078C137.026 139.819 136.983 139.776 136.983 139.724V138.679C136.983 138.627 137.026 138.584 137.078 138.584H140.48V137.647H137.078C136.509 137.647 136.044 138.11 136.044 138.679V138.678Z" fill="#FFFDE6"/>
<path d="M144.841 137.646H142.079C141.51 137.646 141.045 138.109 141.045 138.678V139.722C141.045 140.291 141.508 140.756 142.079 140.756H144.841C145.41 140.756 145.875 140.293 145.875 139.722V138.678C145.875 138.109 145.412 137.646 144.841 137.646ZM144.937 139.722C144.937 139.774 144.893 139.818 144.841 139.818H142.079C142.027 139.818 141.984 139.774 141.984 139.722V138.678C141.984 138.626 142.027 138.583 142.079 138.583H144.841C144.893 138.583 144.937 138.626 144.937 138.678V139.722Z" fill="#FFFDE6"/>
<path d="M156.777 137.646H152.982V142H153.919V140.755H156.777C157.346 140.755 157.811 140.291 157.811 139.721V138.676C157.811 138.107 157.347 137.644 156.777 137.644V137.646ZM156.872 139.722C156.872 139.774 156.829 139.818 156.777 139.818H153.919V138.583H156.777C156.829 138.583 156.872 138.626 156.872 138.678V139.722Z" fill="#FFFDE6"/>
<path d="M154.528 136.698H157.155C157.516 136.698 157.809 136.406 157.809 136.044V128.141H154.528V136.698Z" fill="#FFFDE6"/>
<path d="M148.883 125.003L143.612 120.401L143.607 120.406L142.922 119.789L131.97 130.76L130.703 128.141H131.706L128.468 122.03L125.304 128.141H126.307L124.173 132.424H125.518L122.998 137.645L134.871 140.756L132.537 135.473L136.045 130.813V136.702H139.325V134.46H140.346L141.87 136.702H145.552L143.658 133.918L144.951 132.625V128.145H141.671L139.327 129.337V128.485C139.327 128.297 139.175 128.144 138.986 128.144H138.052L143.205 121.297L149.299 126.763L152.44 123.339L156.45 126.761H157.808L152.398 122.04L148.88 125.002L148.883 125.003ZM139.328 131.186L141.672 129.994V132.424H139.327V131.187L139.328 131.186Z" fill="#FFFDE6"/>
<path d="M151.382 137.646H148.619C148.05 137.646 147.585 138.109 147.585 138.678V139.722C147.585 140.291 148.049 140.756 148.619 140.756H151.382C151.951 140.756 152.416 140.293 152.416 139.722V138.678C152.416 138.109 151.952 137.646 151.382 137.646ZM151.479 139.722C151.479 139.774 151.435 139.818 151.383 139.818H148.621C148.569 139.818 148.526 139.774 148.526 139.722V138.678C148.526 138.626 148.569 138.583 148.621 138.583H151.383C151.435 138.583 151.479 138.626 151.479 138.678V139.722Z" fill="#FFFDE6"/>
<path d="M160.128 128.905V128.901C160.128 128.671 159.959 128.565 159.701 128.565H159.31V129.678H159.554V129.246H159.672L159.941 129.678H160.196L159.901 129.206C160.034 129.166 160.129 129.073 160.129 128.907L160.128 128.905ZM159.889 128.914C159.889 129.021 159.824 129.076 159.695 129.076H159.552V128.752H159.695C159.818 128.752 159.889 128.792 159.889 128.91V128.914Z" fill="#FFFDE6"/>
<path d="M159.695 128.01C159.065 128.01 158.567 128.513 158.567 129.139C158.567 129.765 159.071 130.258 159.695 130.258C160.319 130.258 160.825 129.769 160.825 129.135C160.825 128.5 160.336 128.011 159.695 128.011V128.01ZM159.695 130.073C159.177 130.073 158.77 129.698 158.77 129.138C158.77 128.577 159.156 128.192 159.695 128.192C160.235 128.192 160.62 128.577 160.62 129.132C160.62 129.686 160.218 130.072 159.695 130.072V130.073Z" fill="#FFFDE6"/>
<path d="M80.2345 135.816C80.2345 135.816 80.2286 135.82 80.2271 135.822C77.6123 137.674 74.5133 139.618 71.1819 141.659L71.0508 141.736C71.0061 141.768 70.9942 141.83 71.0269 141.875C71.0582 141.919 71.1193 141.93 71.1655 141.899L71.2772 141.841C74.1036 140.366 77.3501 138.614 80.6174 136.819C80.6353 136.81 80.6517 136.799 80.6696 136.79C80.4893 136.495 80.3433 136.173 80.2375 135.819L80.2345 135.816ZM97.3997 121.921C93.2771 117.374 66.7524 121.464 55.4724 123.928L55.2101 123.984C55.1565 123.993 55.1193 124.045 55.1297 124.099C55.1386 124.154 55.1908 124.19 55.2459 124.181L55.5066 124.13C64.8528 122.466 84.2871 120.16 88.4692 124.306C89.7446 125.571 89.4406 127.201 87.9612 129.124C88.7583 129.636 89.3274 130.442 89.5822 131.451C95.357 127.609 99.2382 123.947 97.4012 121.921H97.3997Z" fill="#FFFDE6"/>
<path d="M81.9032 134.621C81.9569 136.221 82.9685 137.531 84.2886 137.531C86.8467 137.531 87.9358 134.39 87.8599 132.291C87.8062 130.688 86.7678 129.38 85.4492 129.38C83.2486 129.38 81.8272 132.509 81.9032 134.621ZM80.5519 134.536C80.4565 131.807 82.596 129.015 85.704 129.015C87.7824 129.015 89.1427 130.399 89.2187 132.521C89.3185 135.4 87.3205 138.043 84.0666 138.043C81.9882 138.043 80.6279 136.661 80.5519 134.538V134.536Z" fill="#FFFDE6"/>
<path d="M51.1189 133.815C51.0071 133.856 50.8641 133.898 50.6868 133.935C50.5095 133.976 50.1847 134.034 49.7154 134.107C49.3906 134.157 49.1671 134.226 49.039 134.317C48.9168 134.408 48.8438 134.516 48.8229 134.648C48.7976 134.789 48.8438 134.901 48.9659 134.989C49.0896 135.075 49.2982 135.12 49.5917 135.12C49.8122 135.12 50.0282 135.084 50.2368 135.017C50.4484 134.948 50.6257 134.853 50.7643 134.737C50.8656 134.651 50.9371 134.539 50.9907 134.406C51.022 134.318 51.0667 134.122 51.1189 133.812V133.815ZM53.8186 132.134C53.8066 132.385 53.7649 132.605 53.6964 132.988L53.239 135.553C53.2002 135.781 53.2837 135.96 53.4952 136.082L53.4818 136.182L50.8656 136.179L50.8417 135.527C50.4603 135.756 50.0014 135.95 49.5843 136.064C49.1701 136.17 48.8348 136.218 48.3298 136.218C47.485 136.218 47.0008 136.13 46.667 135.836C46.3273 135.534 46.1634 135.334 46.1798 134.919C46.1932 134.679 46.3169 134.372 46.4957 134.157C46.6775 133.938 46.9233 133.797 47.1915 133.67C47.4611 133.542 47.7785 133.448 48.2419 133.375C48.7052 133.299 49.3488 133.225 50.213 133.153C50.6659 133.116 50.943 133.01 51.0727 132.96C51.2529 132.89 51.323 132.812 51.3498 132.665C51.3975 132.401 51.314 132.251 50.9639 132.181C50.0208 131.996 48.2538 132.3 47.3434 132.528L47.8381 131.193C49.0389 131.017 50.1653 130.905 51.3498 130.905C53.233 130.905 53.8364 131.443 53.8171 132.133L53.8186 132.134Z" fill="#FFFDE6"/>
<path d="M61.4033 136.182L62.3122 131.057H64.8167L63.9093 136.182H61.4033ZM62.4507 129.872C62.5252 129.45 63.1912 129.109 63.9332 129.109C64.6751 129.109 65.2204 129.452 65.1489 129.872C65.07 130.293 64.407 130.634 63.662 130.634C62.9171 130.634 62.3747 130.293 62.4507 129.872Z" fill="#FFFDE6"/>
<path d="M73.7148 133.827C73.603 133.866 73.457 133.906 73.2797 133.948C73.1039 133.989 72.7791 134.042 72.3068 134.119C71.985 134.17 71.7555 134.238 71.6319 134.331C71.5112 134.418 71.4397 134.529 71.4144 134.66C71.3875 134.801 71.4397 134.916 71.5574 135.001C71.684 135.087 71.8941 135.131 72.1876 135.131C72.4051 135.131 72.6197 135.098 72.8298 135.032C73.0428 134.961 73.2201 134.87 73.3602 134.752C73.457 134.666 73.53 134.553 73.5837 134.42C73.6164 134.334 73.6596 134.137 73.7148 133.83V133.827ZM76.4145 132.145C76.404 132.397 76.3593 132.619 76.2908 132.999L75.8364 135.567C75.7962 135.794 75.8811 135.971 76.0912 136.097L76.0763 136.187L73.46 136.191L73.4391 135.537C73.0562 135.768 72.5944 135.962 72.1817 136.074C71.7645 136.182 71.4292 136.227 70.9227 136.227C70.0779 136.227 69.5982 136.142 69.2629 135.847C68.9217 135.543 68.7579 135.345 68.7757 134.931C68.7847 134.69 68.9113 134.381 69.0916 134.17C69.2734 133.949 69.5192 133.809 69.7904 133.683C70.06 133.556 70.3789 133.462 70.8363 133.385C71.3011 133.313 71.9477 133.234 72.8104 133.163C73.2603 133.125 73.536 133.023 73.6656 132.973C73.8489 132.903 73.9204 132.824 73.9472 132.677C73.9934 132.418 73.9114 132.264 73.5628 132.194C72.6152 132.008 70.8541 132.315 69.9423 132.54L70.434 131.205C71.6393 131.029 72.7597 130.916 73.9457 130.916C75.8274 130.916 76.4279 131.455 76.413 132.144L76.4145 132.145Z" fill="#FFFDE6"/>
<path d="M45.8386 134.341C45.0236 134.503 44.5647 134.564 43.7587 134.564C42.5623 134.564 41.6117 133.97 41.6624 132.881C41.6996 132.155 42.5593 130.624 44.742 130.624C45.4288 130.624 45.9667 130.746 46.6893 131.157L47.0066 129.377C46.0248 129.006 45.3737 128.949 44.5304 128.958C41.6683 128.99 38.918 130.29 38.5783 132.936C38.2311 135.625 41.5149 136.3 42.9735 136.294C43.8153 136.291 44.6898 136.257 45.5078 136.172L45.84 134.338L45.8386 134.341Z" fill="#FFFDE6"/>
<path d="M66.1979 131.029L66.3782 129.986L68.9989 129.416L68.7203 131.029H70.0031L69.7588 132.061L68.5147 132.058L67.7578 136.179C67.7578 136.179 65.2354 136.163 65.2265 136.179L65.9789 132.067H65.0269L65.2205 131.027H66.1979V131.029Z" fill="#FFFDE6"/>
<path d="M78.9575 136.179L76.4053 136.182L77.6896 129.033L80.1747 129.103L78.9575 136.179Z" fill="#FFFDE6"/>
<path d="M58.0899 132.26C57.7621 132.26 57.4642 132.358 57.2004 132.558C56.9382 132.757 56.7728 133.048 56.7043 133.435C56.6253 133.882 56.6715 134.204 56.8488 134.402C57.0276 134.599 57.2854 134.697 57.6236 134.697C57.8515 134.697 58.0869 134.657 58.2613 134.57C58.4758 134.457 58.6233 134.336 58.7514 134.149C58.89 133.949 58.9809 133.729 59.0271 133.472C59.0986 133.067 59.0375 132.765 58.8498 132.565C58.6665 132.36 58.4162 132.258 58.0884 132.258L58.0899 132.26ZM53.5278 137.952L54.7466 131.084H56.9472L56.7773 131.96C56.968 131.698 57.2734 131.484 57.6936 131.308C58.1182 131.133 58.5965 131.005 59.115 131.005C59.6886 131.005 60.0432 131.037 60.4738 131.259C60.9014 131.484 61.1993 131.807 61.3617 132.231C61.5271 132.649 61.5614 133.116 61.472 133.627C61.323 134.474 60.9103 135.141 60.2339 135.633C59.5619 136.123 58.9585 136.251 58.0944 136.255C57.789 136.255 57.5327 136.224 57.3211 136.172C57.114 136.118 56.9486 136.051 56.822 135.972C56.7013 135.892 56.5732 135.779 56.4093 135.6L55.9996 137.954H53.5293L53.5278 137.952Z" fill="#FFFDE6"/>
<path d="M99.0101 132.889C98.9952 132.476 98.7881 132.197 98.362 132.197C97.334 132.197 96.2419 134.21 96.0527 135.022C97.7378 135.022 99.0504 134.018 99.0101 132.889ZM99.2307 136.044L99.4288 136.178C98.9282 137.198 97.9061 138.019 96.7068 138.019C95.7264 138.019 94.9233 137.367 94.8801 136.141C94.8012 133.945 96.8587 131.904 98.5438 131.904C99.2664 131.904 99.9369 132.22 99.9667 132.997C100.029 134.743 97.5754 135.278 95.9603 135.314C95.9082 135.496 95.8888 135.68 95.8977 135.959C95.9246 136.683 96.3626 137.292 97.2684 137.292C98.0506 137.292 98.8343 136.662 99.2292 136.041L99.2307 136.044Z" fill="#FFFDE6"/>
<path d="M89.18 132.83C89.3543 132.808 89.6344 132.777 89.7551 132.777C89.9398 132.777 90.1127 132.811 90.1216 132.994C90.1246 133.103 89.9294 133.881 89.8877 134.061L89.4973 135.785C89.3394 136.489 89.1681 137.228 89.0161 137.811H90.0203L90.585 135.081C92.3073 133.288 92.9688 132.704 93.3756 132.704C93.5573 132.704 93.684 132.799 93.6929 133.018C93.7033 133.334 93.5082 134.051 93.4396 134.256L92.8645 136.246C92.7334 136.693 92.6366 137.097 92.6455 137.385C92.6634 137.821 92.9271 138.016 93.319 138.016C94.0535 138.016 94.5854 137.252 95.0502 136.501L94.9146 136.255C94.7254 136.558 94.2919 137.216 93.9477 137.216C93.8389 137.216 93.7361 137.143 93.7331 136.962C93.7227 136.729 93.821 136.381 93.8881 136.15L94.5273 133.818C94.6986 133.176 94.7805 132.762 94.7761 132.543C94.7597 132.108 94.5064 131.904 94.116 131.904C93.456 131.904 92.5785 132.386 90.722 134.523H90.6952L90.9291 133.48C91.0558 132.909 91.1794 132.315 91.3001 131.904C90.658 132.135 89.7372 132.394 89.1681 132.504L89.177 132.83H89.18Z" fill="#FFFDE6"/>
<path d="M112.361 131.358L114.638 129.081L114.836 128.885L114.638 128.689L114.347 128.398L114.152 128.202L113.956 128.398L111.679 130.675L109.402 128.398L109.206 128.202L109.009 128.398L108.719 128.689L108.523 128.885L108.719 129.081L110.997 131.358L108.719 133.635L108.523 133.83L108.719 134.027L109.009 134.317L109.206 134.514L109.402 134.317L111.679 132.041L113.956 134.317L114.152 134.514L114.347 134.317L114.638 134.027L114.836 133.83L114.638 133.635L112.361 131.358Z" fill="#FFFDE6"/>
</g>
<defs>
<clipPath id="clip0_857_17940">
<rect width="200" height="142" fill="white"/>
</clipPath>
</defs>
</svg>
