<svg width="287" height="45" viewBox="0 0 287 45" fill="none" xmlns="http://www.w3.org/2000/svg">
<g clip-path="url(#clip0_552_7392)">
<path d="M177.216 42.0598C183.094 35.59 180.516 23.2027 175.2 16.8113C173.34 14.5743 175.416 11.1445 178.325 11.1445H195.944C196.955 11.1445 199.767 12.3472 200.772 12.9074C212.368 19.3655 209.25 43.9677 195.944 43.9677H178.186C177.204 43.9677 176.556 42.7865 177.216 42.0598ZM193.652 41.6818C194.845 42.8394 196.292 41.7112 196.761 40.4047C198.01 36.9122 195.675 26.9459 194.555 23.1009C193.871 20.7543 191.354 12.4745 188.254 12.9486C186.211 13.26 187.215 16.7505 187.441 18.1413C187.979 21.4868 192.036 40.1128 193.654 41.6818H193.652Z" fill="#FFFEEC"/>
<path d="M206.764 43.9657C210.427 33.2924 211.412 22.333 213.177 11.1935L229.874 11.1426C230.518 22.4486 234.653 33.1376 237.574 43.9677H224.003L221.461 29.9017L216.666 29.7431C217.122 34.4951 217.334 39.533 219.236 43.9677H206.764V43.9657ZM216.668 16.7956C216.192 19.9962 217.02 24.2311 216.668 27.5532L221.069 27.5493C220 23.6493 219.449 19.5888 217.763 15.8848C217.267 15.4029 216.705 16.5449 216.668 16.7956Z" fill="#FFFEEC"/>
<path d="M286.2 13.4148C286.979 16.4039 287.122 19.2989 286.47 22.0765C286.192 23.2635 284.688 23.6415 283.894 22.715C282.743 21.3733 281.622 20.006 280.314 18.7916C278.919 17.4969 274.036 13.5636 272.432 13.1366C268.23 12.0162 268.563 14.4843 270.806 16.9386C275.434 22.006 286.784 27.0851 286.88 35.0279C287.015 46.232 268.281 46.3457 261.78 40.865C260.154 37.1512 259.684 33.6489 260.781 30.4326C261.143 29.369 262.522 29.0948 263.28 29.9233L267.456 34.4912C270.436 36.6145 274.171 40.7005 277.656 41.8562C280.096 42.6651 280.51 40.963 279.217 39.2059C275.534 34.2013 263.188 27.945 261.944 22.1039C260.887 17.1345 265.026 12.6802 269.556 11.3953C274.279 10.0555 279.017 11.1328 283.791 11.4345C284.933 11.5069 285.91 12.3022 286.198 13.4109L286.2 13.4148Z" fill="#FFFEEC"/>
<path d="M246.376 11.1445C246.868 14.97 247.326 18.9659 248.564 22.6445C248.68 22.9892 249.242 24.4896 249.918 25.7589C250.427 26.7129 251.869 26.3838 251.912 25.3025C251.957 24.1371 252.023 22.6974 252.084 21.4222C252.221 18.627 251.931 15.826 251.214 13.119C251.183 12.9995 251.154 12.8918 251.128 12.8017C250.954 12.1905 250.699 11.693 250.411 11.1426H262.514C257.036 21.573 249.888 31.506 254.078 43.9657H241.606C243.646 31.9389 239.146 20.8463 232.438 11.1426H246.376V11.1445Z" fill="#FFFEEC"/>
<path d="M20.3321 44.4085C23.5464 44.4085 26.4611 43.7542 29.0192 42.5653C35.728 39.4469 39.9687 32.6441 40.6191 24.2919H42.5896V36.9162C42.5896 41.9541 46.0351 43.9051 50.5579 43.9051C54.1836 43.9051 57.2765 41.6388 58.7495 38.9572V43.5446H69.5403V37.684H66.228V24.2919H71.5148V34.644C71.5148 40.818 73.9319 43.907 79.5301 43.907C82.7542 43.907 84.5014 42.3204 85.7531 40.5007V43.5446H90.7695V40.2324C93.3688 43.0452 95.9211 43.907 99.725 43.907C103.217 43.907 106.085 42.6789 107.605 40.4106V43.5446H123.951V39.772C125.655 42.3615 128.654 43.86 132.55 43.86C136.041 43.86 138.28 42.3615 140.029 39.6369V43.5446H151.758V39.6859C154.089 42.8199 157.536 44.0872 162.149 44.0872C168.509 44.0872 174.419 41.4527 175.314 34.1895H167.924C167.34 37.3236 165.908 38.8201 162.637 38.8201C159.902 38.8201 157.981 37.1414 157.844 32.3307H175.087V31.2847C175.087 23.1127 170.294 17.9807 162.639 17.9807C155.521 17.9807 149.744 22.9756 149.744 31.0105C149.744 33.5099 150.101 35.8251 150.949 37.6409H147.548V9.84985H135.59V15.8456H140.025V21.9786C138.769 20.0688 136.573 18.3921 133.441 18.3921C126.094 18.3921 122.159 23.6611 122.159 30.8361C122.159 33.4237 122.558 35.831 123.232 37.6918H119.248V18.394H101.784V21.5222C100.393 19.5242 98.3832 18.1629 94.8868 18.1629C90.6774 18.1629 87.99 19.4831 86.6953 21.2499V18.3H79.1716V11.6735H73.2189C73.2189 16.1708 72.0515 18.3039 66.185 18.3039H54.636V24.4368H58.7083V32.2915C58.7083 35.4255 57.1413 37.8329 53.782 37.8329C50.9183 37.8329 50.1563 35.878 50.1563 33.2885V18.3019H40.2606C38.9894 11.3522 35.1365 5.2957 29.0192 2.35363C26.5002 1.13723 23.5954 0.45166 20.3281 0.45166C7.43354 0.45166 0 10.034 0 22.6602C0.00195877 34.9163 8.10932 44.4065 20.3321 44.4065V44.4085ZM162.684 23.2008C165.775 23.2008 166.893 25.0636 167.119 28.2897H157.981C158.52 24.6112 160.4 23.2008 162.684 23.2008ZM135.414 23.6984C138.454 23.6984 140.025 26.6522 140.025 29.5982V32.0995C140.025 35.0103 138.546 38.0483 135.279 38.0483C131.206 38.0483 130.309 33.9153 130.309 30.5521C130.309 27.1889 131.559 23.6964 135.414 23.6964V23.6984ZM96.5028 22.9756C98.9709 22.9756 100.399 23.7473 101.521 26.1096H107.969V24.2938H112.402V37.6409H108.41C108.502 37.0964 108.547 36.3716 108.547 35.735C108.547 24.7914 92.834 29.2417 92.834 24.7463C92.834 23.2478 94.7556 22.9756 96.5028 22.9756ZM79.1716 24.2938H85.9803C85.9333 24.6582 85.9333 25.1577 85.9333 25.52C85.9333 37.0043 101.47 32.3777 101.47 37.0964C101.47 38.7319 99.5879 39.0924 98.1991 39.0924C94.6635 39.0924 93.0495 37.4568 91.3924 34.7321H82.9305C83.0617 37.5038 83.0167 39.0473 81.1852 39.0473C79.3538 39.0473 79.1696 37.1826 79.1696 35.688V24.2919L79.1716 24.2938ZM19.1235 6.76282C26.5551 6.76282 29.0192 18.9307 29.0192 24.8345C29.0192 30.4228 27.2269 37.825 21.4486 37.825C21.4348 37.825 21.4192 37.825 21.4055 37.825C15.3411 37.825 11.6449 27.994 11.6449 19.3401C11.6449 14.3472 13.5253 6.76478 19.1235 6.76478V6.76282Z" fill="#FFFEEC"/>
<path d="M119.252 9.84766H112.177V16.435H119.252V9.84766Z" fill="#FFFEEC"/>
</g>
<defs>
<clipPath id="clip0_552_7392">
<rect width="286.882" height="43.9568" fill="white" transform="translate(0 0.45166)"/>
</clipPath>
</defs>
</svg>
